<svg width="40" height="40" viewBox="0 0 100 100" fill="none" xmlns="http://www.w3.org/2000/svg">
<rect width="40" height="40" rx="20" fill="url(#paint0_linear_2_43)"/>
<path d="M38.518 20L49 46L71.4 20H86.488L86.078 22.214L81.486 22.624C80.6113 22.7333 80.0373 22.9793 79.764 23.362C79.5453 23.69 79.272 24.7833 78.944 26.642L71.482 69.118C71.154 70.9767 71.0447 72.0973 71.154 72.48C71.2633 72.808 71.728 73.0267 72.548 73.136L76.976 73.628L76.648 75.76H56.886L57.214 73.628L61.806 73.136C62.6807 73.0267 63.2273 72.808 63.446 72.48C63.7193 72.0973 64.02 70.9767 64.348 69.118L72.22 24.51L50 50L45.5 49L32.286 24.264L24.578 69.118C24.25 70.9767 24.1407 72.0973 24.25 72.48C24.3593 72.808 24.824 73.0267 25.644 73.136L30.072 73.628L29.662 75.76H14L14.41 73.628L19.002 73.136C19.7673 73.0267 20.2867 72.808 20.56 72.48C20.888 72.0973 21.216 70.9767 21.544 69.118L29.006 26.642C29.334 24.7833 29.4433 23.69 29.334 23.362C29.2247 22.9793 28.76 22.7333 27.94 22.624L23.43 22.214L23.84 20H38.518Z" fill="#EF1926"/>
<g clip-path="url(#clip0_2_43)">
<mask id="mask0_2_43" style="mask-type:luminance" maskUnits="userSpaceOnUse" x="-25" y="24" width="86" height="90">
<path d="M-4.21959 24.0404L60.1068 42.3467L39.9654 113.121L-24.361 94.8151L-4.21959 24.0404Z" fill="white"/>
</mask>
<g mask="url(#mask0_2_43)">
<path d="M29.8339 46.0468C26.2814 58.5297 23.9348 64.609 22.794 64.2843C21.6532 63.9596 20.5789 61.9569 19.5711 58.2758C18.5218 54.5002 17.7864 49.862 17.3651 44.361C16.9021 38.7654 16.4806 35.9135 16.1003 35.8053C15.6567 35.6791 15.3476 35.9222 15.1733 36.5349C14.563 38.6792 14.529 42.8916 15.071 49.172C16.3195 62.359 18.7817 69.4755 22.4576 70.5216C23.8519 70.9184 25.174 71.0878 26.4238 71.0295C27.6953 70.8946 28.5124 70.6719 28.8748 70.361C29.7701 69.6224 31.046 66.3429 32.7024 60.5226C36.6253 46.7377 39.4271 35.4483 41.1075 26.6547C43.5411 32.066 44.5488 41.5437 46 48C42.9255 53.7479 42.5 55 40.5 60C39.2359 64.4418 39 68.5 40 71.5C41.3615 74.1835 41.8452 74.8868 44 75.5C46.5985 76.2395 50.2782 74.05 52 68C53.1227 64.0548 52.2929 57.3662 50 50C52.7932 45 57.1075 40.7283 60.9761 36.2827C60.0068 43.5402 59.5328 51.1043 59.5538 58.975C59.5748 66.8456 60.1822 72.8961 61.3761 77.1268C62.5919 81.2809 64.7207 83.7909 67.7629 84.6566C69.9811 85.2879 71.3844 84.5696 71.9729 82.5019C72.4524 80.8171 72.3148 79.4948 71.5603 78.535C70.8058 77.5752 69.8384 76.7617 68.658 76.0947C67.436 75.333 66.7003 74.6683 66.4508 74.1006C64.8726 70.2572 64.0849 64.2381 64.0877 56.0432C64.0271 47.8302 64.623 39.5972 65.8756 31.3439C69.8213 27.8308 72.0885 25.0404 72.6769 22.9727C73.2871 20.8284 73.3775 18.8258 72.9478 16.9651C72.4549 15.0863 71.1626 13.8493 69.0711 13.2541C68.4374 13.0737 67.6153 13.9159 66.605 15.7809C65.6166 17.5692 64.8171 19.5356 64.2069 21.6799C58.4012 27.3956 53.4491 33.6024 49.3505 40.3007C47.8063 32.245 45.6027 24.5811 42.7394 17.309C44.8939 2.27575 44.6718 -5.61065 42.0733 -6.35015C41.186 -6.60267 40.0382 -6.06007 38.6298 -4.72237C37.1581 -3.4027 36.1825 -1.90043 35.703 -0.215645C34.221 4.99204 34.5868 10.8083 36.8006 17.2332C35.7086 23.9592 33.3863 33.5638 29.8339 46.0468ZM47 52.5C48.5 56 49.3505 62 49.3505 65.5C49.3505 69 47.5 73.5 45 73.5C43 73.5 42.5 71 42 69C41.5 67 42 62.5 43 60.5226C43.5 58.5 46 54 47 52.5Z" fill="#EF1926"/>
</g>
</g>
<defs>
<linearGradient id="paint0_linear_2_43" x1="20" y1="5.5" x2="62.5" y2="100" gradientUnits="userSpaceOnUse">
<stop stop-color="#221C20"/>
<stop offset="1" stop-color="#2C242A"/>
</linearGradient>
<clipPath id="clip0_2_43">
<rect width="16.1808" height="30.6153" fill="white" transform="matrix(-0.96181 -0.273716 -0.273716 0.96181 57.9216 50.0251)"/>
</clipPath>
</defs>
</svg>
