<svg width="63" height="63" viewBox="0 0 63 63" fill="none" xmlns="http://www.w3.org/2000/svg">
<path d="M21.355 5L30.0572 28.0443L48.6538 5H61.18L60.8396 6.96231L57.0273 7.3257C56.3011 7.4226 55.8246 7.64064 55.5977 7.9798C55.4161 8.27052 55.1892 9.23955 54.9169 10.8869L48.7219 48.5342C48.4496 50.1816 48.3589 51.1748 48.4496 51.514C48.5404 51.8047 48.9261 51.9985 49.6069 52.0954L53.2831 52.5315L53.0108 54.4211H36.6042L36.8765 52.5315L40.6888 52.0954C41.415 51.9985 41.8688 51.8047 42.0504 51.514C42.2773 51.1748 42.5269 50.1816 42.7992 48.5342L49.3346 8.9973L30.8874 31.5896L27.1515 30.7032L16.1812 8.77926L9.78192 48.5342C9.50961 50.1816 9.41887 51.1748 9.50961 51.514C9.60036 51.8047 9.98615 51.9985 10.6669 52.0954L14.3431 52.5315L14.0027 54.4211H1L1.34038 52.5315L5.15269 52.0954C5.78807 51.9985 6.21923 51.8047 6.44615 51.514C6.71846 51.1748 6.99077 50.1816 7.26308 48.5342L13.4581 10.8869C13.7304 9.23955 13.8211 8.27052 13.7304 7.9798C13.6396 7.64064 13.2538 7.4226 12.5731 7.3257L8.82885 6.96231L9.16923 5H21.355Z" fill="#C80915"/>
<g clip-path="url(#clip0_13_96)">
<mask id="mask0_13_96" style="mask-type:luminance" maskUnits="userSpaceOnUse" x="-34" y="6" width="74" height="84">
<path d="M-16.046 6.72651L39.6889 23.6598L22.2376 89.1265L-33.4973 72.1932L-16.046 6.72651Z" fill="white"/>
</mask>
<g mask="url(#mask0_13_96)">
<path d="M13.4593 27.0824C10.3813 38.6292 8.34806 44.2525 7.35962 43.9522C6.37118 43.6519 5.44036 41.7993 4.5672 38.3943C3.65802 34.9019 3.02088 30.6115 2.6558 25.5231C2.25471 20.3472 1.88943 17.7092 1.55995 17.6091C1.17559 17.4923 0.907834 17.7172 0.756756 18.284C0.22803 20.2674 0.198532 24.1639 0.668165 29.9732C1.74986 42.1713 3.88328 48.7541 7.06821 49.7217C8.27628 50.0887 9.42177 50.2454 10.5046 50.1914C11.6064 50.0667 12.3143 49.8607 12.6283 49.5732C13.404 48.8899 14.5095 45.8564 15.9447 40.4726C19.3437 27.7216 21.7712 17.2789 23.2272 9.1447C25.3358 14.1502 26.2089 22.9171 27.4663 28.8892C24.8024 34.206 24.4337 35.3642 22.7008 39.9892C21.6056 44.0978 21.4012 47.8517 22.2676 50.6267C23.4473 53.109 23.8664 53.7595 25.7334 54.3267C27.9848 55.0107 31.1731 52.9854 32.6649 47.3892C33.6377 43.7399 32.9187 37.5529 30.932 30.7392C33.3521 26.1141 37.0902 22.1628 40.4421 18.0506C39.6023 24.7639 39.1916 31.7607 39.2098 39.041C39.228 46.3214 39.7543 51.9181 40.7887 55.8315C41.8421 59.674 43.6866 61.9957 46.3225 62.7966C48.2445 63.3805 49.4604 62.7161 49.9702 60.8035C50.3856 59.245 50.2665 58.0219 49.6127 57.1341C48.959 56.2462 48.1208 55.4938 47.098 54.8768C46.0393 54.1722 45.4018 53.5574 45.1856 53.0323C43.8182 49.4771 43.1357 43.9095 43.1381 36.3291C43.0856 28.7321 43.602 21.1165 44.6873 13.4823C48.106 10.2326 50.0703 7.65153 50.5802 5.73887C51.1089 3.75541 51.1872 1.90303 50.8149 0.181823C50.3878 -1.55606 49.2682 -2.70028 47.456 -3.25084C46.9069 -3.41767 46.1946 -2.63862 45.3193 -0.91354C44.4628 0.740628 43.7702 2.55954 43.2415 4.54301C38.2111 9.83005 33.9204 15.5714 30.3692 21.7673C29.0313 14.3157 27.122 7.22668 24.6412 0.499992C26.5079 -13.4058 26.3155 -20.7007 24.064 -21.3848C23.2952 -21.6184 22.3007 -21.1165 21.0804 -19.8791C19.8053 -18.6584 18.96 -17.2688 18.5445 -15.7104C17.2605 -10.8933 17.5774 -5.51318 19.4955 0.429879C18.5494 6.65139 16.5373 15.5356 13.4593 27.0824ZM28.3327 33.0517C29.6323 36.2892 30.3692 41.8392 30.3692 45.0767C30.3692 48.3142 28.7659 52.4767 26.5998 52.4767C24.8669 52.4767 24.4337 50.1642 24.0005 48.3142C23.5673 46.4642 24.0005 42.3017 24.8669 40.4726C25.3001 38.6017 27.4663 34.4392 28.3327 33.0517Z" fill="#C80915"/>
</g>
</g>
<defs>
<clipPath id="clip0_13_96">
<rect width="14.0929" height="28.1888" fill="white" transform="matrix(-0.956815 -0.290698 -0.257573 0.966259 37.7956 30.7623)"/>
</clipPath>
</defs>
</svg>
